<?xml version="1.0" encoding="UTF-8" standalone="no"?>
<!DOCTYPE svg PUBLIC "-//W3C//DTD SVG 20010904//EN"
              "http://www.w3.org/TR/2001/REC-SVG-20010904/DTD/svg10.dtd">

<svg xmlns="http://www.w3.org/2000/svg"
     width="3.33333in" height="2.22333in"
     viewBox="0 0 1000 667">
  <path id="Selection"
        fill="none" stroke="black" stroke-width="1"
        d="M 171.00,251.00
           C 171.00,251.00 171.00,569.00 171.00,569.00
             171.00,569.00 171.00,642.00 171.00,642.00
             171.00,646.69 172.32,662.24 168.57,664.83
             166.52,666.24 162.45,666.00 160.00,666.00
             160.00,666.00 38.00,666.00 38.00,666.00
             38.00,666.00 11.00,666.00 11.00,666.00
             8.43,665.99 4.69,666.22 2.74,664.26
             0.65,662.18 1.00,657.76 1.00,655.00
             1.00,655.00 1.00,154.00 1.00,154.00
             1.00,154.00 1.00,38.00 1.00,38.00
             1.00,38.00 1.00,12.00 1.00,12.00
             1.01,9.43 0.78,5.69 2.74,3.74
             4.82,1.65 9.24,2.00 12.00,2.00
             12.00,2.00 197.00,2.00 197.00,2.00
             199.58,2.00 203.40,1.76 205.61,3.17
             208.67,5.13 213.15,17.16 214.86,21.00
             214.86,21.00 240.58,78.00 240.58,78.00
             240.58,78.00 309.69,232.00 309.69,232.00
             309.69,232.00 335.70,290.00 335.70,290.00
             335.70,290.00 350.00,321.00 350.00,321.00
             350.00,321.00 373.14,269.00 373.14,269.00
             373.14,269.00 430.31,141.00 430.31,141.00
             430.31,141.00 459.00,77.00 459.00,77.00
             459.00,77.00 484.14,21.00 484.14,21.00
             485.83,17.18 490.35,5.12 493.39,3.17
             495.60,1.76 499.42,2.00 502.00,2.00
             502.00,2.00 1000.00,2.00 1000.00,2.00
             1000.00,2.00 1000.00,393.00 1000.00,393.00
             1000.00,393.00 1000.00,486.00 1000.00,486.00
             999.99,493.96 998.55,501.24 997.00,509.00
             990.24,542.82 976.19,571.47 952.83,597.00
             944.93,605.63 929.92,617.05 920.00,623.67
             878.41,651.39 829.36,662.89 780.00,665.04
             780.00,665.04 767.00,666.00 767.00,666.00
             767.00,666.00 724.00,666.00 724.00,666.00
             724.00,666.00 701.00,665.00 701.00,665.00
             701.00,665.00 686.00,666.00 686.00,666.00
             686.00,666.00 631.00,666.00 631.00,666.00
             631.00,666.00 547.00,666.00 547.00,666.00
             547.00,666.00 529.00,666.00 529.00,666.00
             526.64,665.96 523.54,666.06 521.74,664.26
             519.65,662.18 520.00,657.76 520.00,655.00
             520.00,655.00 520.00,376.00 520.00,376.00
             520.00,376.00 520.00,291.00 520.00,291.00
             520.00,282.25 520.91,255.72 519.00,249.00
             519.00,249.00 508.42,275.00 508.42,275.00
             508.42,275.00 488.85,321.00 488.85,321.00
             488.85,321.00 432.85,452.00 432.85,452.00
             432.85,452.00 414.58,495.00 414.58,495.00
             413.13,498.40 409.27,509.05 406.59,510.83
             404.45,512.24 400.52,512.00 398.00,512.00
             398.00,512.00 293.00,512.00 293.00,512.00
             290.31,512.00 286.57,512.22 284.21,510.83
             280.69,508.74 277.44,498.98 275.72,495.00
             275.72,495.00 256.42,450.00 256.42,450.00
             256.42,450.00 203.42,326.00 203.42,326.00
             203.42,326.00 171.00,251.00 171.00,251.00 Z
           M 200.00,12.00
           C 200.00,12.00 12.00,12.00 12.00,12.00
             12.00,12.00 12.00,656.00 12.00,656.00
             12.00,656.00 161.00,656.00 161.00,656.00
             161.00,656.00 161.00,257.00 161.00,257.00
             161.01,250.25 161.74,242.86 170.00,241.43
             176.69,240.28 180.27,245.79 182.69,251.00
             182.69,251.00 198.58,288.00 198.58,288.00
             198.58,288.00 266.00,446.00 266.00,446.00
             266.00,446.00 284.00,488.00 284.00,488.00
             287.00,495.07 287.46,501.85 296.00,502.00
             296.00,502.00 392.00,502.00 392.00,502.00
             401.79,501.98 400.41,501.65 406.72,487.00
             406.72,487.00 423.72,447.00 423.72,447.00
             423.72,447.00 492.42,286.00 492.42,286.00
             492.42,286.00 508.31,249.00 508.31,249.00
             510.73,243.79 514.31,238.28 521.00,239.43
             529.26,240.86 529.99,248.25 530.00,255.00
             530.00,255.00 530.00,656.00 530.00,656.00
             530.00,656.00 583.00,656.00 583.00,656.00
             583.00,656.00 607.00,655.00 607.00,655.00
             607.00,655.00 596.60,652.41 596.60,652.41
             596.60,652.41 595.00,644.00 595.00,644.00
             595.00,644.00 595.00,623.00 595.00,623.00
             595.00,623.00 595.00,521.00 595.00,521.00
             595.00,521.00 606.00,521.00 606.00,521.00
             613.43,521.10 618.16,523.87 625.00,526.31
             625.00,526.31 651.00,534.98 651.00,534.98
             664.02,539.02 673.69,540.24 687.00,542.00
             687.00,542.00 687.00,122.00 687.00,122.00
             687.00,122.00 683.00,122.00 683.00,122.00
             683.00,122.00 683.00,12.00 683.00,12.00
             683.00,12.00 499.00,12.00 499.00,12.00
             499.00,12.00 486.86,40.00 486.86,40.00
             486.86,40.00 462.30,95.00 462.30,95.00
             462.30,95.00 389.31,258.00 389.31,258.00
             389.31,258.00 363.86,315.00 363.86,315.00
             360.97,321.54 357.20,332.16 348.00,330.57
             340.16,329.21 337.12,318.34 334.23,312.00
             334.23,312.00 308.69,255.00 308.69,255.00
             308.69,255.00 234.14,89.00 234.14,89.00
             234.14,89.00 211.69,39.00 211.69,39.00
             211.69,39.00 200.00,12.00 200.00,12.00 Z
           M 833.00,122.00
           C 833.00,122.00 697.00,122.00 697.00,122.00
             697.00,122.00 697.00,444.00 697.00,444.00
             697.00,444.00 697.00,519.00 697.00,519.00
             697.00,519.00 697.00,536.00 697.00,536.00
             697.04,537.95 696.90,540.63 698.60,541.98
             700.19,543.23 704.01,543.00 706.00,543.00
             706.00,543.00 725.00,543.00 725.00,543.00
             725.00,543.00 735.00,542.09 735.00,542.09
             771.95,539.51 806.24,529.10 822.13,492.00
             832.01,468.92 831.72,446.41 832.00,422.00
             832.00,422.00 833.00,407.00 833.00,407.00
             833.00,407.00 833.00,363.00 833.00,363.00
             833.00,363.00 833.00,122.00 833.00,122.00 Z" />
</svg>
