<?xml version="1.0" standalone="no"?>
<!DOCTYPE svg PUBLIC "-//W3C//DTD SVG 20010904//EN"
 "http://www.w3.org/TR/2001/REC-SVG-20010904/DTD/svg10.dtd">
<svg version="1.0" xmlns="http://www.w3.org/2000/svg"
 width="465.000000pt" height="278.000000pt" viewBox="0 0 465.000000 278.000000"
 preserveAspectRatio="xMidYMid meet">

<g transform="translate(0.000000,278.000000) scale(0.100000,-0.100000)"
fill="#FFFFFF" stroke="none">
<path d="M10 1385 l0 -1375 385 0 385 0 0 830 c0 784 1 830 18 830 14 0 56
-136 252 -828 l235 -827 276 -3 276 -2 217 762 c120 420 226 793 237 831 16
53 24 67 39 67 20 0 20 -13 20 -830 l0 -830 390 0 390 0 0 1375 0 1375 -560 0
-559 0 -19 -62 c-10 -35 -103 -359 -208 -722 -108 -376 -195 -661 -202 -663
-7 -3 -15 -3 -18 0 -3 3 -95 315 -205 693 -110 379 -204 704 -210 722 l-11 32
-564 0 -564 0 0 -1375z"/>
<path d="M3810 1828 c-1 -513 -5 -965 -9 -1005 -11 -96 -42 -157 -94 -187 -53
-31 -125 -43 -304 -51 l-143 -7 0 -284 0 -284 158 0 c193 0 519 16 627 31 382
51 518 187 565 569 17 144 29 729 30 1478 l0 672 -415 0 -415 0 0 -932z"/>
</g>
</svg>
